#!OML:ASF F:\VICON\USERDATA\INSTALL\rory3\rory3.ASF
:FULLY-SPECIFIED
:DEGREES
91
root 0.879024 17.8145 -15.4124 6.58227 -0.725476 0.277983
lowerback 8.60356 -0.414618 -1.23112
upperback -0.254174 -0.547189 2.52537
thorax -5.06013 -0.205511 3.39968
lowerneck -16.9206 -4.68161 -10.1434
upperneck 22.9179 -5.11236 5.40572
head 10.5703 -2.59816 2.90253
rclavicle 1.00386e-014 7.95139e-015
rhumerus -31.6145 0.0105628 -86.9402
rradius 38.104
rwrist 5.30279
rhand -5.60624 8.44173
rfingers 7.12502
rthumb 20.2108 -20.5268
lclavicle 1.00386e-014 7.95139e-015
lhumerus -28.3932 3.29534 92.0009
lradius 30.6781
lwrist -8.82473
lhand -15.7002 25.5392
lfingers 7.12502
lthumb 10.4894 55.2575
rfemur -12.5139 5.51805 19.9272
rtibia 22.0323
rfoot -10.7615 -8.87361
rtoes 2.61408
lfemur -13.9276 -2.80959 -19.0324
ltibia 23.6408
lfoot -12.4094 3.61212
ltoes 0.712645
92
root 0.877685 17.8012 -15.4544 6.71929 -0.629295 0.288726
lowerback 9.06458 -0.438304 -1.27718
upperback -0.26559 -0.580746 2.57243
thorax -5.32913 -0.216075 3.4886
lowerneck -16.5311 -4.62473 -10.134
upperneck 22.6144 -5.04407 5.32149
head 10.377 -2.57813 2.88191
rclavicle -1.30204e-014 -3.97569e-015
rhumerus -31.7516 0.578313 -87.0671
rradius 38.9505
rwrist 4.55197
rhand -5.46179 8.41667
rfingers 7.12502
rthumb 20.3497 -20.5371
lclavicle -1.30204e-014 -3.97569e-015
lhumerus -28.5646 3.03463 92.0835
lradius 31.1679
lwrist -8.32573
lhand -16.1716 24.8413
lfingers 7.12502
lthumb 10.0346 54.5821
rfemur -12.9449 5.32788 19.8998
rtibia 22.257
rfoot -10.7579 -8.7836
rtoes 2.75319
lfemur -14.7545 -2.50399 -19.0255
ltibia 24.4903
lfoot -12.5601 3.23047
ltoes 1.11712
93
root 0.877536 17.795 -15.489 6.9115 -0.634023 0.121692
lowerback 9.27434 -0.449482 -1.11123
upperback -0.0992525 -0.575707 2.65016
thorax -5.27398 -0.219512 3.47684
lowerneck -16.6461 -4.65737 -10.1158
upperneck 22.3876 -5.06507 5.28765
head 10.3172 -2.58523 2.85955
rclavicle -3.18055e-015 -8.74653e-015
rhumerus -31.5717 1.13029 -87.2289
rradius 39.722
rwrist 4.27053
rhand -5.26029 8.00627
rfingers 7.12502
rthumb 20.5433 -20.9268
lclavicle -3.18055e-015 -8.74653e-015
lhumerus -28.3396 2.877 92.1509
lradius 31.5466
lwrist -8.02728
lhand -16.5843 24.3921
lfingers 7.12502
lthumb 9.63643 54.1516
rfemur -13.4286 5.27183 20.0481
rtibia 22.4938
rfoot -10.82 -8.71699
rtoes 2.5325
lfemur -15.5458 -2.0845 -18.8499
ltibia 25.3445
lfoot -12.8728 2.94452
ltoes 0.825225
94
root 0.881362 17.7909 -15.5224 7.09507 -0.472157 -0.222288
lowerback 9.52809 -0.512458 -0.679411
upperback 0.12944 -0.607778 2.7821
thorax -5.17771 -0.248212 3.37621
lowerneck -16.9661 -4.67323 -10.1999
upperneck 22.0313 -5.04047 5.38639
head 10.2519 -2.55996 2.90455
rclavicle 7.95139e-016 1.03368e-014
rhumerus -31.1457 1.63879 -87.3051
rradius 40.288
rwrist 3.99104
rhand -4.8076 7.26633
rfingers 7.12502
rthumb 20.9783 -21.6192
lclavicle 7.95139e-016 1.03368e-014
lhumerus -27.9668 2.59506 92.2876
lradius 32.0535
lwrist -7.72563
lhand -16.5943 24.6845
lfingers 7.12502
lthumb 9.62684 54.4445
rfemur -13.8761 5.10059 20.4097
rtibia 22.762
rfoot -10.9474 -8.70335
rtoes 2.11785
lfemur -16.3063 -1.79112 -18.4705
ltibia 26.1546
lfoot -13.1198 2.61781
ltoes 0.509574
95
root 0.887097 17.7834 -15.5637 7.28008 -0.0452114 -0.478974
lowerback 9.96914 -0.623295 -0.23901
upperback 0.253684 -0.697121 2.8932
thorax -5.29356 -0.301483 3.26309
lowerneck -17.4235 -4.66127 -10.1938
upperneck 21.9887 -4.94826 5.29315
head 10.3125 -2.51986 2.87739
rclavicle 1.35174e-014 1.59028e-015
rhumerus -30.9711 2.12857 -87.3263
rradius 40.9856
rwrist 3.51233
rhand -4.93082 7.4421
rfingers 7.12502
rthumb 20.8599 -21.4564
lclavicle 1.35174e-014 1.59028e-015
lhumerus -27.6908 2.32261 92.4727
lradius 32.4996
lwrist -7.47029
lhand -16.6821 25.1336
lfingers 7.12502
lthumb 9.54212 54.8975
rfemur -14.3238 4.70207 20.6871
rtibia 23.0377
rfoot -11.0544 -8.69688
rtoes 2.28226
lfemur -17.2156 -1.79211 -18.1438
ltibia 26.9612
lfoot -13.1827 2.15642
ltoes 1.33042
96
root 0.890272 17.7722 -15.607 7.44915 0.318064 -0.557496
lowerback 10.5162 -0.719 -0.0734712
upperback 0.27711 -0.791351 2.98862
thorax -5.57195 -0.34788 3.29604
lowerneck -17.6336 -4.65622 -10.23
upperneck 22.0137 -4.86759 5.13926
head 10.3519 -2.50063 2.83745
rclavicle -4.77083e-015 1.51076e-014
rhumerus -31.2412 2.6946 -87.3552
rradius 42.0678
rwrist 3.07702
rhand -5.28744 7.79202
rfingers 7.12502
rthumb 20.5172 -21.1438
lclavicle -4.77083e-015 1.51076e-014
lhumerus -27.7088 2.18253 92.6283
lradius 33.0943
lwrist -7.31926
lhand -16.539 25.492
lfingers 7.12502
lthumb 9.68012 55.2496
rfemur -14.8307 4.35353 20.7723
rtibia 23.3973
rfoot -11.0724 -8.69467
rtoes 2.32733
lfemur -18.0728 -1.74535 -18.0055
ltibia 27.7144
lfoot -13.229 1.64673
ltoes 2.38977
97
root 0.895314 17.7544 -15.6506 7.62503 0.480528 -0.796428
lowerback 11.0371 -0.769641 0.204281
upperback 0.298772 -0.808496 3.09626
thorax -5.84343 -0.359476 3.2676
lowerneck -17.5922 -4.60961 -10.2602
upperneck 21.8131 -4.79794 5.16625
head 10.2669 -2.4658 2.86084
rclavicle -9.54166e-015 -3.33958e-014
rhumerus -31.3212 3.22062 -87.4254
rradius 42.7956
rwrist 2.66458
rhand -5.52697 7.80463
rfingers 7.12502
rthumb 20.287 -21.1559
lclavicle -9.54166e-015 -3.33958e-014
lhumerus -27.8367 1.94701 92.7562
lradius 33.8381
lwrist -6.92435
lhand -16.729 25.1552
lfingers 7.12502
lthumb 9.49681 54.9212
rfemur -15.4527 4.11315 21.0042
rtibia 23.8922
rfoot -11.1298 -8.58821
rtoes 2.16686
lfemur -18.8492 -1.52818 -17.745
ltibia 28.3812
lfoot -13.3336 1.34993
ltoes 2.27939
98
root 0.905097 17.7382 -15.6893 7.8878 0.523747 -1.01013
lowerback 11.3285 -0.751031 0.473555
upperback 0.401715 -0.740899 3.16997
thorax -5.90471 -0.332608 3.18721
lowerneck -17.7213 -4.62656 -10.2007
upperneck 21.5274 -4.82747 5.21635
head 10.1899 -2.46263 2.86009
rclavicle -1.55052e-014 2.06736e-014
rhumerus -31.1144 3.52084 -87.4352
rradius 43.3024
rwrist 2.61503
rhand -5.75285 7.8762
rfingers 7.12502
rthumb 20.0699 -21.1072
lclavicle -1.55052e-014 2.06736e-014
lhumerus -27.6948 1.56091 92.8927
lradius 34.4505
lwrist -6.53801
lhand -16.8379 24.3862
lfingers 7.12502
lthumb 9.39174 54.157
rfemur -16.2073 3.82711 21.1744
rtibia 24.4515
rfoot -11.2805 -8.3301
rtoes 2.11307
lfemur -19.6569 -1.31176 -17.5408
ltibia 28.9756
lfoot -13.4966 1.19567
ltoes 2.11556
99
root 0.911316 17.7226 -15.7269 8.13841 0.523908 -1.08471
lowerback 11.5735 -0.723378 0.535361
upperback 0.582064 -0.691922 3.22397
thorax -5.8542 -0.31087 3.20347
lowerneck -18.1215 -4.66952 -10.0845
upperneck 21.3948 -4.85209 5.13635
head 10.2137 -2.46566 2.80234
rclavicle 8.74653e-015 -2.94201e-014
rhumerus -30.8529 3.88313 -87.4264
rradius 43.9841
rwrist 2.42796
rhand -5.76585 8.05775
rfingers 7.12502
rthumb 20.0574 -20.927
lclavicle 8.74653e-015 -2.94201e-014
lhumerus -27.1845 1.2331 92.9849
lradius 34.6716
lwrist -6.30493
lhand -18.91 22.1481
lfingers 7.12502
lthumb 7.392 51.999
rfemur -16.9663 3.54586 21.226
rtibia 25.0314
rfoot -11.3309 -8.09039
rtoes 1.72015
lfemur -20.3932 -1.23671 -17.4629
ltibia 29.5047
lfoot -13.6487 1.14317
ltoes 2.12652
100
root 0.917933 17.7071 -15.7594 8.28991 0.394222 -1.12913
lowerback 11.7875 -0.695604 0.56
upperback 0.824767 -0.651083 3.26663
thorax -5.7195 -0.293394 3.22791
lowerneck -18.4147 -4.64095 -10.0407
upperneck 21.1973 -4.77143 5.07907
head 10.1877 -2.42465 2.78109
rclavicle 1.35174e-014 -3.97569e-014
rhumerus -30.4207 4.44471 -87.4602
rradius 44.3753
rwrist 2.07553
rhand -5.61704 7.88833
rfingers 7.12502
rthumb 20.2005 -21.0813
lclavicle 1.35174e-014 -3.97569e-014
lhumerus -26.7253 1.00759 93.0633
lradius 34.8626
lwrist -5.85201
lhand -21.5169 19.7333
lfingers 7.12502
lthumb 4.87522 49.6572
rfemur -17.6433 3.38258 21.2367
rtibia 25.6794
rfoot -11.4353 -7.82765
rtoes 1.71621
lfemur -20.9004 -1.11433 -17.4405
ltibia 29.9249
lfoot -13.8307 1.16759
ltoes 1.84907
101
root 0.924758 17.6925 -15.7878 8.39456 0.296164 -1.19398
lowerback 12.0701 -0.662046 0.57117
upperback 0.997911 -0.597755 3.3544
thorax -5.69652 -0.267575 3.30882
lowerneck -18.3467 -4.6085 -10.1253
upperneck 20.9219 -4.70505 5.10151
head 10.0735 -2.3956 2.8109
rclavicle 1.27222e-014 -2.46493e-014
rhumerus -30.0634 4.86193 -87.3867
rradius 44.4343
rwrist 2.15747
rhand -5.65741 7.59642
rfingers 7.12502
rthumb 20.1617 -21.3773
lclavicle 1.27222e-014 -2.46493e-014
lhumerus -26.6495 0.884477 93.2249
lradius 35.3714
lwrist -5.4807
lhand -17.3566 25.0877
lfingers 7.12502
lthumb 8.89124 54.8803
rfemur -18.2553 3.19748 21.2707
rtibia 26.3707
rfoot -11.7135 -7.56133
rtoes 1.60942
lfemur -21.2789 -0.914284 -17.4141
ltibia 30.2724
lfoot -13.9974 1.11303
ltoes 1.33927
102
root 0.93282 17.6715 -15.8233 8.54306 0.222512 -1.11336
lowerback 12.518 -0.566946 0.526092
upperback 1.05355 -0.46896 3.33477
thorax -5.89418 -0.202035 3.30086
lowerneck -18.195 -4.63615 -10.0975
upperneck 20.6966 -4.77342 5.15139
head 9.97093 -2.41816 2.81363
rclavicle -2.78299e-015 1.51076e-014
rhumerus -29.8181 4.93176 -87.2609
rradius 44.3024
rwrist 2.90243
rhand -6.47707 8.67348
rfingers 7.12502
rthumb 19.3737 -20.3814
lclavicle -2.78299e-015 1.51076e-014
lhumerus -26.5176 0.604423 93.3484
lradius 35.7321
lwrist -5.36089
lhand -20.8604 22.1476
lfingers 7.12502
lthumb 5.50915 52.056
rfemur -18.9396 2.94683 21.145
rtibia 27.0642
rfoot -11.9986 -7.28641
rtoes 1.18555
lfemur -21.7452 -0.8266 -17.542
ltibia 30.5999
lfoot -14.1034 1.15666
ltoes 0.934425
